# 3ds Max Wavefront OBJ Exporter v0.97b - (c)2007 guruware
# File Created: 29.10.2017 16:37:57

mtllib Arrow.mtl

#
# object arrow
#

v  -0.0047 0.0070 0.0101
v  -0.0047 0.0070 -0.0081
v  0.0078 0.0070 0.0003
v  -0.0047 0.5718 0.0101
v  0.0078 0.5718 0.0003
v  -0.0047 0.5718 -0.0081
v  0.0078 0.5066 0.0003
v  -0.0047 0.5066 0.0101
v  -0.0047 0.5066 -0.0081
v  0.0233 0.5766 0.0291
v  0.0198 0.5766 0.0319
v  0.0198 0.5537 0.0319
v  0.0233 0.5537 0.0291
v  0.0178 0.5766 -0.0319
v  0.0213 0.5766 -0.0295
v  0.0213 0.5537 -0.0295
v  0.0178 0.5537 -0.0319
v  -0.0370 0.5766 0.0035
v  -0.0370 0.5766 -0.0016
v  -0.0370 0.5537 -0.0016
v  -0.0370 0.5537 0.0035
v  0.0023 -0.0594 0.0007
v  0.0162 0.0198 -0.0002
v  -0.0089 0.0198 0.0196
v  -0.0089 0.0198 -0.0172
# 25 vertices

vn 0.0000 -1.0000 -0.0000
vn 0.0000 1.0000 -0.0000
vn 0.6196 -0.0000 0.7849
vn 0.5590 0.0000 -0.8292
vn -1.0000 0.0000 -0.0000
vn 0.6196 0.0000 0.7849
vn 0.8810 0.0000 -0.4731
vn -0.0916 0.9890 -0.1161
vn -0.6647 0.0000 0.7471
vn 0.5111 -0.5652 0.6475
vn -0.7253 0.0000 -0.6885
vn -0.0827 0.9890 0.1226
vn 0.9103 0.0000 0.4140
vn 0.4611 -0.5652 -0.6840
vn -0.1995 0.0000 0.9799
vn 0.1479 0.9890 -0.0000
vn -0.1995 0.0000 -0.9799
vn -0.8249 -0.5652 -0.0000
vn 0.6166 -0.0990 0.7811
vn 0.5557 -0.1078 -0.8244
vn -0.9902 -0.1398 -0.0000
vn -0.0000 1.0000 0.0000
# 22 vertex normals

vt 0.0891 0.7643 0.0000
vt 0.0891 0.8042 0.0000
vt 0.0493 0.8042 0.0000
vt 0.0501 0.6543 0.0000
vt 0.0900 0.6543 0.0000
vt 0.0501 0.6942 0.0000
vt 0.4223 0.6111 0.0000
vt 0.4223 0.8789 0.0000
vt 0.1347 0.8789 0.0000
vt 0.1347 0.6111 0.0000
vt 0.4193 0.6183 0.0000
vt 0.4193 0.8806 0.0000
vt 0.1376 0.8806 0.0000
vt 0.1376 0.6183 0.0000
vt 0.4358 0.6084 0.0000
vt 0.4358 0.8910 0.0000
vt 0.1323 0.8910 0.0000
vt 0.1323 0.6084 0.0000
vt 0.3910 0.2380 0.0000
vt 0.1034 0.2380 0.0000
vt 0.1034 0.2182 0.0000
vt 0.3910 0.2182 0.0000
vt 0.3950 0.3123 0.0000
vt 0.1133 0.3123 0.0000
vt 0.1133 0.2929 0.0000
vt 0.3950 0.2929 0.0000
vt 0.4045 0.3938 0.0000
vt 0.1010 0.3938 0.0000
vt 0.1010 0.3729 0.0000
vt 0.4045 0.3729 0.0000
vt 0.7774 0.7831 0.0000
vt 0.9513 0.7985 0.0000
vt 0.6035 0.7985 0.0000
# 33 texture coords

g arrow
usemtl wire_115115115
s off
f 1/1/1 2/2/1 3/3/1 
f 4/4/2 5/5/2 6/6/2 
f 3/7/3 7/8/3 8/9/3 1/10/3 
f 2/11/4 9/12/4 7/13/4 3/14/4 
f 1/15/5 8/16/5 9/17/5 2/18/5 
f 10/19/6 11/20/6 12/21/6 13/22/6 
f 14/23/4 15/24/4 16/25/4 17/26/4 
f 18/27/5 19/28/5 20/29/5 21/30/5 
f 7/22/7 5/19/7 10/19/7 13/22/7 
f 5/19/8 4/20/8 11/20/8 10/19/8 
f 4/20/9 8/21/9 12/21/9 11/20/9 
f 8/21/10 7/22/10 13/22/10 12/21/10 
f 9/26/11 6/23/11 14/23/11 17/26/11 
f 6/23/12 5/24/12 15/24/12 14/23/12 
f 5/24/13 7/25/13 16/25/13 15/24/13 
f 7/25/14 9/26/14 17/26/14 16/25/14 
f 8/30/15 4/27/15 18/27/15 21/30/15 
f 4/27/16 6/28/16 19/28/16 18/27/16 
f 6/28/17 9/29/17 20/29/17 19/28/17 
f 9/29/18 8/30/18 21/30/18 20/29/18 
f 22/31/19 23/32/19 24/33/19 
f 22/31/20 25/32/20 23/33/20 
f 22/31/21 24/32/21 25/33/21 
f 23/32/22 25/32/22 24/32/22 
# 18 polygons - 6 triangles

